<svg xmlns="http://www.w3.org/2000/svg" viewBox="0 0 24 24" width="20" height="20" color="currentColor" fill="none">
    <defs></defs>
    <path fill="currentColor" d="M12.5,1.25 C18.437,1.25 23.25,6.063 23.25,12 C23.25,17.937 18.437,22.75 12.5,22.75 C6.563,22.75 1.75,17.937 1.75,12 C1.75,6.063 6.563,1.25 12.5,1.25 Z M3.25,12 C3.25,17.109 7.391,21.25 12.5,21.25 C17.609,21.25 21.75,17.109 21.75,12 C21.75,6.891 17.609,2.75 12.5,2.75 C7.391,2.75 3.25,6.891 3.25,12 Z M17.03,8.53 L13.561,12 L14.03,12.469 C14.323,12.762 14.323,13.237 14.03,13.53 C13.737,13.823 13.262,13.823 12.97,13.53 L12.5,13.061 L12.03,13.53 C11.737,13.823 11.263,13.823 10.97,13.53 C10.677,13.237 10.677,12.763 10.97,12.47 L11.439,12 L9.47,10.03 C9.177,9.737 9.177,9.263 9.47,8.97 C9.763,8.677 10.237,8.677 10.53,8.97 L12.5,10.939 L15.97,7.47 C16.263,7.177 16.737,7.177 17.03,7.47 C17.323,7.763 17.323,8.237 17.03,8.53 Z"></path>
</svg>